<svg width="268" height="83" viewBox="0 0 268 83" fill="none" xmlns="http://www.w3.org/2000/svg">
<path d="M14.1133 19.2539C13.8008 19.0977 13.5078 19.0195 13.2344 19.0195C12.8698 19.0195 12.6875 19.4362 12.6875 20.2695C12.6875 20.543 12.8112 20.7969 13.0586 21.0312C13.319 21.2656 13.6055 21.3828 13.918 21.3828C15.1159 21.3828 15.7148 20.3281 15.7148 18.2188C15.7148 17.3724 15.3763 16.6432 14.6992 16.0312C14.0352 15.4062 13.2539 15.0938 12.3555 15.0938C11.1576 15.0938 10.1159 15.5495 9.23047 16.4609C8.35807 17.3594 7.92188 18.375 7.92188 19.5078C7.92188 20.4323 8.26693 21.3438 8.95703 22.2422C9.64714 23.1276 11.0339 24.1367 13.1172 25.2695C15.2005 26.4023 16.6849 27.2682 17.5703 27.8672C18.4557 28.4661 19.2044 29.1953 19.8164 30.0547C20.4414 30.9141 20.7539 31.9036 20.7539 33.0234C20.7539 35.1198 19.8034 37.125 17.9023 39.0391C16.0143 40.9401 13.9245 41.8906 11.6328 41.8906C9.96615 41.8906 8.50781 41.2461 7.25781 39.957C6.02083 38.668 5.40234 37.1706 5.40234 35.4648C5.40234 34.0977 6.0013 32.8607 7.19922 31.7539C8.41016 30.6471 9.65365 30.0938 10.9297 30.0938C12.1146 30.0938 13.0651 30.3802 13.7812 30.9531C14.5104 31.513 14.875 32.2682 14.875 33.2188C14.875 34.2214 14.4648 35.0938 13.6445 35.8359C12.8372 36.5781 11.9128 36.9492 10.8711 36.9492C10.4284 36.9492 10.0573 36.793 9.75781 36.4805C9.47135 36.1549 9.32812 35.7904 9.32812 35.3867C9.32812 34.9831 9.47786 34.6576 9.77734 34.4102C10.0768 34.1497 10.4609 34.0195 10.9297 34.0195C11.2943 34.0195 11.5547 34.1693 11.7109 34.4688C11.0208 34.6771 10.6758 34.9245 10.6758 35.2109C10.6758 35.9401 11.0078 36.3047 11.6719 36.3047C12.1927 36.3047 12.6159 36.0312 12.9414 35.4844C13.2799 34.9245 13.4492 34.332 13.4492 33.707C13.4492 32.9128 13.1758 32.2292 12.6289 31.6562C12.082 31.0703 11.418 30.7773 10.6367 30.7773C9.60807 30.7773 8.8138 31.2526 8.25391 32.2031C7.70703 33.1536 7.43359 34.3971 7.43359 35.9336C7.43359 37.3268 7.86979 38.5312 8.74219 39.5469C9.6276 40.5495 10.7148 41.0508 12.0039 41.0508C14.0091 41.0508 15.7214 40.3542 17.1406 38.9609C18.5729 37.5547 19.2891 35.7057 19.2891 33.4141C19.2891 32.3594 18.9766 31.4674 18.3516 30.7383C17.7396 29.9961 16.9779 29.3841 16.0664 28.9023C15.168 28.4206 13.931 27.8607 12.3555 27.2227C10.7799 26.5846 9.50391 26.0117 8.52734 25.5039C7.5638 24.9831 6.74349 24.306 6.06641 23.4727C5.40234 22.6393 5.07031 21.6237 5.07031 20.4258C5.07031 18.7721 5.80599 17.3724 7.27734 16.2266C8.76172 15.0807 10.4935 14.5078 12.4727 14.5078C13.7487 14.5078 14.8294 14.8203 15.7148 15.4453C16.6003 16.0573 17.043 16.8646 17.043 17.8672C17.043 19 16.7435 19.9701 16.1445 20.7773C15.5586 21.5846 14.7773 21.9883 13.8008 21.9883C13.0456 21.9883 12.3945 21.8255 11.8477 21.5C11.3008 21.1615 11.0273 20.7122 11.0273 20.1523C11.0273 19.6836 11.1901 19.2604 11.5156 18.8828C11.8542 18.4922 12.2839 18.2969 12.8047 18.2969C13.6771 18.2969 14.1133 18.6159 14.1133 19.2539ZM37.7047 23.1016C37.4964 23.4141 37.2294 23.5703 36.9039 23.5703C36.6826 23.5703 36.4677 23.401 36.2594 23.0625C36.051 22.724 35.9469 22.431 35.9469 22.1836C35.9469 21.8971 36.1292 21.5781 36.4937 21.2266C36.8714 20.875 37.262 20.6992 37.6656 20.6992C38.0562 20.6992 38.4794 20.9531 38.9352 21.4609C39.3909 21.9688 39.6187 22.4375 39.6187 22.8672C39.6187 23.8568 39.2997 24.6901 38.6617 25.3672C38.0367 26.0443 37.3661 26.3828 36.65 26.3828C35.8297 26.3828 35.1135 26.0117 34.5016 25.2695C33.8896 24.5143 33.5836 23.6875 33.5836 22.7891C33.5836 21.5 34.2086 20.276 35.4586 19.1172C36.7086 17.9583 38.2711 17.3789 40.1461 17.3789C42.9065 17.3789 45.387 18.5312 47.5875 20.8359C49.788 23.1406 50.8883 25.6536 50.8883 28.375C50.8883 31.7995 49.6969 34.9049 47.3141 37.6914C44.9312 40.4648 42.1773 41.8516 39.0523 41.8516C35.4456 41.8516 32.3857 40.6667 29.8727 38.2969C27.3596 35.9141 26.1031 33.1016 26.1031 29.8594C26.1031 26.7083 27.1122 23.8372 29.1305 21.2461C31.1617 18.6549 33.6552 16.9948 36.6109 16.2656L36.8648 16.8516C34.469 17.3203 32.5419 18.7266 31.0836 21.0703C29.6253 23.4141 28.8961 26.168 28.8961 29.332C28.8961 32.6523 29.8792 35.4583 31.8453 37.75C33.8115 40.0417 36.3245 41.1875 39.3844 41.1875C41.8583 41.1875 43.8961 39.9766 45.4977 37.5547C47.0992 35.1328 47.9 32.3398 47.9 29.1758C47.9 26.0378 47.1253 23.4466 45.5758 21.4023C44.0263 19.3581 42.0276 18.3359 39.5797 18.3359C38.0823 18.3359 36.8193 18.7982 35.7906 19.7227C34.775 20.6341 34.2672 21.6367 34.2672 22.7305C34.2672 23.3164 34.5081 23.8047 34.9898 24.1953C35.4716 24.5859 35.9729 24.7812 36.4937 24.7812C37.1578 24.7812 37.7242 24.625 38.193 24.3125C38.6617 23.987 38.8961 23.5964 38.8961 23.1406C38.8961 22.763 38.7594 22.4505 38.4859 22.2031C38.2125 21.9427 37.913 21.8125 37.5875 21.8125C36.8323 21.8125 36.4547 21.9362 36.4547 22.1836C36.4547 22.4049 36.8714 22.7109 37.7047 23.1016ZM73.1516 21.1875C73.1516 21.3438 73.0539 21.487 72.8586 21.6172C72.6633 21.7474 72.481 21.8125 72.3117 21.8125C72.0643 21.8125 71.843 21.7148 71.6477 21.5195C71.4523 21.3112 71.3547 21.1029 71.3547 20.8945C71.3547 20.6081 71.4979 20.3021 71.7844 19.9766C72.0708 19.638 72.3703 19.4688 72.6828 19.4688C73.1906 19.4688 73.6724 19.651 74.1281 20.0156C74.5969 20.3802 74.8312 20.7839 74.8312 21.2266C74.8312 21.9036 74.5318 22.4766 73.9328 22.9453C73.3469 23.401 72.6893 23.6289 71.9602 23.6289C71.1529 23.6289 70.4237 23.2839 69.7727 22.5938C69.1216 21.8906 68.7961 21.1549 68.7961 20.3867C68.7961 19.2148 69.2193 18.2253 70.0656 17.418C70.912 16.5977 71.8495 16.1875 72.8781 16.1875C74.4667 16.1875 75.8078 17.2878 76.9016 19.4883C78.0083 21.6758 78.5617 24.5729 78.5617 28.1797C78.5617 32.125 77.6503 35.4909 75.8273 38.2773C74.0174 41.0638 71.524 42.457 68.3469 42.457C65.5865 42.457 63.1841 41.3893 61.1398 39.2539C59.0956 37.1185 58.0734 34.612 58.0734 31.7344C58.0734 30.3411 58.1385 29.0846 58.2687 27.9648C58.399 26.832 58.6398 25.0742 58.9914 22.6914L59.675 18.1797H57.3898V17.418C59.382 17.3789 60.8078 17.3203 61.6672 17.2422C62.5396 17.1641 63.744 16.9036 65.2805 16.4609V17.418L62.9953 17.9453C62.7479 18.6224 62.3573 20.0221 61.8234 22.1445C61.2896 24.2669 60.9315 26.0508 60.7492 27.4961C60.5669 28.9414 60.4758 30.6341 60.4758 32.5742C60.4758 35.0091 61.231 37.1315 62.7414 38.9414C64.2648 40.7513 66.1333 41.6562 68.3469 41.6562C71.2245 41.6562 73.4706 40.3932 75.0852 37.8672C76.6997 35.3411 77.507 32.151 77.507 28.2969C77.507 24.8594 77.1099 22.2487 76.3156 20.4648C75.5344 18.681 74.4016 17.7891 72.9172 17.7891C72.149 17.7891 71.4849 18.0951 70.925 18.707C70.3651 19.306 70.0852 20.0091 70.0852 20.8164C70.0852 21.4935 70.3065 22.0534 70.7492 22.4961C71.2049 22.9258 71.6867 23.1406 72.1945 23.1406C72.5591 23.1406 72.9042 22.9909 73.2297 22.6914C73.5552 22.3919 73.718 22.0729 73.718 21.7344C73.718 21.3307 73.6008 20.9271 73.3664 20.5234C73.132 20.1068 72.9172 19.8984 72.7219 19.8984C72.3443 19.8984 72.1555 20.0612 72.1555 20.3867C72.1555 20.6341 72.4875 20.901 73.1516 21.1875ZM98.0906 36.6172C98.2859 36.4089 98.5073 36.3047 98.7547 36.3047C99.2885 36.3047 99.5555 36.7539 99.5555 37.6523C99.5555 37.9909 99.3536 38.3815 98.95 38.8242C98.5594 39.2539 98.1753 39.4688 97.7977 39.4688C97.1857 39.4688 96.6779 39.2279 96.2742 38.7461C95.8836 38.2643 95.6883 37.5938 95.6883 36.7344C95.6883 36.0703 95.9161 35.4779 96.3719 34.957C96.8276 34.4362 97.3159 34.1758 97.8367 34.1758C98.7091 34.1758 99.5359 34.6706 100.317 35.6602C101.098 36.6367 101.489 37.7305 101.489 38.9414C101.489 41.3372 100.193 42.5352 97.6023 42.5352C96.5477 42.5352 95.0047 42.3268 92.9734 41.9102C90.9422 41.5065 89.3927 41.3047 88.325 41.3047C87.3354 41.3047 86.0268 41.3958 84.3992 41.5781L84.4773 40.6602L87.8758 40.5039C88.019 39.4753 88.0906 36.832 88.0906 32.5742C88.0906 27.7435 87.687 22.5352 86.8797 16.9492C86.1375 16.9492 85.0568 16.9883 83.6375 17.0664L83.7156 16.0117C85.3823 16.0768 86.9773 16.1094 88.5008 16.1094C89.7638 16.1094 91.17 15.9857 92.7195 15.7383V16.8516H89.8875C90.0437 19.9115 90.1219 22.6198 90.1219 24.9766C90.1219 28.8958 89.7378 34.0326 88.9695 40.3867C89.6857 40.3867 90.9943 40.4714 92.8953 40.6406C94.7964 40.8099 96.0724 40.8945 96.7234 40.8945C97.7911 40.8945 98.7156 40.6602 99.4969 40.1914C100.291 39.7096 100.688 39.1432 100.688 38.4922C100.688 37.6719 100.519 36.9883 100.18 36.4414C99.8419 35.8945 99.3667 35.6211 98.7547 35.6211C98.0516 35.6211 97.4461 35.7643 96.9383 36.0508C96.4435 36.3372 96.1961 36.7409 96.1961 37.2617C96.1961 37.7565 96.3133 38.069 96.5477 38.1992C96.795 38.3164 97.1857 38.375 97.7195 38.375C98.5008 38.375 98.8914 38.1341 98.8914 37.6523C98.8914 37.3529 98.6245 37.0078 98.0906 36.6172ZM131.562 23.1016C131.354 23.4141 131.087 23.5703 130.762 23.5703C130.54 23.5703 130.326 23.401 130.117 23.0625C129.909 22.724 129.805 22.431 129.805 22.1836C129.805 21.8971 129.987 21.5781 130.352 21.2266C130.729 20.875 131.12 20.6992 131.523 20.6992C131.914 20.6992 132.337 20.9531 132.793 21.4609C133.249 21.9688 133.477 22.4375 133.477 22.8672C133.477 23.8568 133.158 24.6901 132.52 25.3672C131.895 26.0443 131.224 26.3828 130.508 26.3828C129.688 26.3828 128.971 26.0117 128.359 25.2695C127.747 24.5143 127.441 23.6875 127.441 22.7891C127.441 21.5 128.066 20.276 129.316 19.1172C130.566 17.9583 132.129 17.3789 134.004 17.3789C136.764 17.3789 139.245 18.5312 141.445 20.8359C143.646 23.1406 144.746 25.6536 144.746 28.375C144.746 31.7995 143.555 34.9049 141.172 37.6914C138.789 40.4648 136.035 41.8516 132.91 41.8516C129.303 41.8516 126.243 40.6667 123.73 38.2969C121.217 35.9141 119.961 33.1016 119.961 29.8594C119.961 26.7083 120.97 23.8372 122.988 21.2461C125.02 18.6549 127.513 16.9948 130.469 16.2656L130.723 16.8516C128.327 17.3203 126.4 18.7266 124.941 21.0703C123.483 23.4141 122.754 26.168 122.754 29.332C122.754 32.6523 123.737 35.4583 125.703 37.75C127.669 40.0417 130.182 41.1875 133.242 41.1875C135.716 41.1875 137.754 39.9766 139.355 37.5547C140.957 35.1328 141.758 32.3398 141.758 29.1758C141.758 26.0378 140.983 23.4466 139.434 21.4023C137.884 19.3581 135.885 18.3359 133.438 18.3359C131.94 18.3359 130.677 18.7982 129.648 19.7227C128.633 20.6341 128.125 21.6367 128.125 22.7305C128.125 23.3164 128.366 23.8047 128.848 24.1953C129.329 24.5859 129.831 24.7812 130.352 24.7812C131.016 24.7812 131.582 24.625 132.051 24.3125C132.52 23.987 132.754 23.5964 132.754 23.1406C132.754 22.763 132.617 22.4505 132.344 22.2031C132.07 21.9427 131.771 21.8125 131.445 21.8125C130.69 21.8125 130.312 21.9362 130.312 22.1836C130.312 22.4049 130.729 22.7109 131.562 23.1016ZM148.572 17.0273C150.056 17.1315 151.443 17.1836 152.732 17.1836C153.969 17.1836 155.72 16.9492 157.986 16.4805C160.265 16.0117 161.925 15.7773 162.966 15.7773C163.982 15.7773 164.783 16.0378 165.369 16.5586C165.955 17.0794 166.248 17.8346 166.248 18.8242C166.248 19.8529 165.798 20.9661 164.9 22.1641C164.015 23.349 163.077 23.9414 162.087 23.9414C161.189 23.9414 160.479 23.707 159.959 23.2383C159.438 22.7565 159.177 22.2161 159.177 21.6172C159.177 21.1354 159.483 20.6081 160.095 20.0352C160.707 19.4622 161.254 19.1758 161.736 19.1758C162.087 19.1758 162.407 19.332 162.693 19.6445C162.992 19.957 163.142 20.2565 163.142 20.543C163.142 21.3112 162.817 21.6953 162.166 21.6953C161.97 20.6536 161.599 20.1328 161.052 20.1328C160.818 20.1328 160.603 20.224 160.408 20.4062C160.226 20.5755 160.134 20.7773 160.134 21.0117C160.134 21.4023 160.375 21.8776 160.857 22.4375C161.339 22.9844 161.821 23.2578 162.302 23.2578C163.071 23.2578 163.683 22.8867 164.138 22.1445C164.594 21.4023 164.822 20.5495 164.822 19.5859C164.822 19 164.574 18.4857 164.08 18.043C163.585 17.6003 162.882 17.3789 161.97 17.3789C160.46 17.3789 157.966 17.5677 154.49 17.9453C154.763 23.9609 154.9 28.2253 154.9 30.7383C158.468 30.7383 161.547 30.4193 164.138 29.7812L164.021 31.3047C160.492 31.7344 157.465 31.9492 154.939 31.9492L155.095 41.5391C156.905 41.5391 158.663 41.2201 160.369 40.582V41.9492C158.025 42.2617 156.117 42.418 154.646 42.418C153.982 42.418 153.038 42.5547 151.814 42.8281V41.6562L154.138 41.5781C153.565 32.099 152.498 24.2344 150.935 17.9844L148.572 17.9062V17.0273ZM183.684 17.0273C185.169 17.1315 186.555 17.1836 187.845 17.1836C189.082 17.1836 190.833 16.9492 193.098 16.4805C195.377 16.0117 197.037 15.7773 198.079 15.7773C199.095 15.7773 199.895 16.0378 200.481 16.5586C201.067 17.0794 201.36 17.8346 201.36 18.8242C201.36 19.8529 200.911 20.9661 200.012 22.1641C199.127 23.349 198.19 23.9414 197.2 23.9414C196.302 23.9414 195.592 23.707 195.071 23.2383C194.55 22.7565 194.29 22.2161 194.29 21.6172C194.29 21.1354 194.596 20.6081 195.208 20.0352C195.82 19.4622 196.367 19.1758 196.848 19.1758C197.2 19.1758 197.519 19.332 197.805 19.6445C198.105 19.957 198.255 20.2565 198.255 20.543C198.255 21.3112 197.929 21.6953 197.278 21.6953C197.083 20.6536 196.712 20.1328 196.165 20.1328C195.93 20.1328 195.716 20.224 195.52 20.4062C195.338 20.5755 195.247 20.7773 195.247 21.0117C195.247 21.4023 195.488 21.8776 195.97 22.4375C196.451 22.9844 196.933 23.2578 197.415 23.2578C198.183 23.2578 198.795 22.8867 199.251 22.1445C199.707 21.4023 199.934 20.5495 199.934 19.5859C199.934 19 199.687 18.4857 199.192 18.043C198.697 17.6003 197.994 17.3789 197.083 17.3789C195.572 17.3789 193.079 17.5677 189.602 17.9453C189.876 23.9609 190.012 28.2253 190.012 30.7383C193.58 30.7383 196.66 30.4193 199.251 29.7812L199.134 31.3047C195.605 31.7344 192.578 31.9492 190.052 31.9492L190.208 41.5391C192.018 41.5391 193.776 41.2201 195.481 40.582V41.9492C193.137 42.2617 191.23 42.418 189.759 42.418C189.095 42.418 188.151 42.5547 186.927 42.8281V41.6562L189.251 41.5781C188.678 32.099 187.61 24.2344 186.048 17.9844L183.684 17.9062V17.0273ZM214.561 40.543L214.483 41.6172C213.09 41.487 211.612 41.4219 210.049 41.4219C209.372 41.4219 208.038 41.5521 206.045 41.8125V40.6992L209.522 40.6211C208.597 33.9284 208.109 25.875 208.057 16.4609L205.166 16.5391L205.205 15.6211C207.601 15.6471 209.248 15.5951 210.147 15.4648C211.045 15.3346 212.159 15.0807 213.487 14.7031L213.682 15.6992L211.084 16.2266C210.603 22.3333 210.362 27.6458 210.362 32.1641C210.362 34.9245 210.433 37.7305 210.577 40.582C211.683 40.582 213.011 40.569 214.561 40.543ZM238.582 42.3789C239.207 42.418 239.52 42.5872 239.52 42.8867C239.52 43.2383 239.324 43.5898 238.934 43.9414C238.543 44.293 238.133 44.4688 237.703 44.4688C237.195 44.4688 236.707 44.3125 236.238 44C235.783 43.6875 235.555 43.3229 235.555 42.9062C235.555 42.3073 235.841 41.7344 236.414 41.1875C236.987 40.6276 237.592 40.3477 238.23 40.3477C239.259 40.3477 240.118 40.6146 240.809 41.1484C241.512 41.6823 241.863 42.3333 241.863 43.1016C241.863 44 241.388 44.8464 240.438 45.6406C239.487 46.4479 238.348 46.8516 237.02 46.8516C235.77 46.8516 234.76 46.474 233.992 45.7188C233.237 44.9766 232.859 44.013 232.859 42.8281C232.859 42.1641 232.97 41.1094 233.191 39.6641C233.426 38.2057 233.543 36.7214 233.543 35.2109C233.543 31.2135 231.186 29.2148 226.473 29.2148L226.395 28.6289C230.678 27.5482 232.82 25.1719 232.82 21.5C232.82 20.0286 232.176 18.8307 230.887 17.9062C229.598 16.9688 228.165 16.5 226.59 16.5C226.043 16.5 225.405 16.5391 224.676 16.6172C224.35 20.1589 224.188 25.4518 224.188 32.4961C224.188 33.1732 224.227 35.5104 224.305 39.5078C225.424 39.5078 226.746 39.2669 228.27 38.7852V39.8594C226.798 40.1849 225.333 40.3477 223.875 40.3477C223.198 40.3477 221.863 40.4779 219.871 40.7383V39.625L223.348 39.5469C222.397 29.4688 221.798 21.9362 221.551 16.9492L218.66 17.418V16.5C222.645 15.9141 225.607 15.6211 227.547 15.6211C229.956 15.6211 231.954 16.1875 233.543 17.3203C235.145 18.4531 235.945 19.6706 235.945 20.9727C235.945 22.2617 235.327 23.6094 234.09 25.0156C232.866 26.4219 231.154 27.5677 228.953 28.4531C231.31 28.7526 233.068 29.2995 234.227 30.0938C235.398 30.888 235.984 32.1576 235.984 33.9023C235.984 34.8659 235.62 36.3242 234.891 38.2773C234.161 40.2305 233.797 41.7995 233.797 42.9844C233.797 43.9479 234.103 44.7292 234.715 45.3281C235.327 45.9271 236.167 46.2266 237.234 46.2266C238.146 46.2266 238.908 45.9401 239.52 45.3672C240.132 44.8073 240.438 44.1693 240.438 43.4531C240.438 41.7734 239.715 40.9336 238.27 40.9336C237.97 40.9336 237.684 41.0768 237.41 41.3633C237.15 41.6497 237.02 41.9753 237.02 42.3398C237.02 42.7565 237.111 43.1016 237.293 43.375C237.488 43.6484 237.71 43.7852 237.957 43.7852C238.4 43.7852 238.608 43.3164 238.582 42.3789ZM260.357 36.3047C260.943 36.4609 261.236 36.7018 261.236 37.0273C261.236 37.5091 261.106 37.9323 260.845 38.2969C260.585 38.6484 260.246 38.8242 259.83 38.8242C259.374 38.8242 258.99 38.6224 258.677 38.2188C258.378 37.8151 258.228 37.3724 258.228 36.8906C258.228 36.1484 258.567 35.4323 259.244 34.7422C259.934 34.0521 260.533 33.707 261.041 33.707C262.173 33.707 263.065 33.9479 263.716 34.4297C264.38 34.8984 264.712 35.5885 264.712 36.5C264.712 37.2422 264.465 38.0495 263.97 38.9219C263.489 39.7812 262.929 40.4714 262.291 40.9922C261.666 41.513 261.041 41.832 260.416 41.9492C259.791 42.0794 258.905 42.1445 257.759 42.1445C257.252 42.1445 256.106 42.0273 254.322 41.793C252.538 41.5716 251.106 41.4609 250.025 41.4609C249.257 41.4609 248.176 41.5911 246.783 41.8516V40.8164L249.029 40.6602C248.612 35.1914 248.17 30.9076 247.701 27.8086C247.245 24.7096 246.542 21.3503 245.591 17.7305L243.502 17.9062V16.8906C247.968 16.7474 251.959 16.3242 255.474 15.6211L259.869 14.7422C259.413 17.1901 259.237 19.3385 259.341 21.1875H258.384L258.502 16.7734L249.4 17.3789C249.817 23.3815 250.025 27.4896 250.025 29.7031C253.84 29.5339 256.854 29.0651 259.068 28.2969V29.8594C256.347 30.3932 253.332 30.6992 250.025 30.7773C250.077 32.1055 250.103 33.8177 250.103 35.9141C250.103 37.4505 250.09 39.0065 250.064 40.582L257.662 40.8164C260.005 40.8164 261.496 40.5495 262.134 40.0156C262.785 39.4818 263.111 38.681 263.111 37.6133C263.111 35.7773 262.18 34.8594 260.318 34.8594C260.045 34.8594 259.758 35.0286 259.459 35.3672C259.172 35.6927 259.029 36.0833 259.029 36.5391C259.029 36.8646 259.166 37.125 259.439 37.3203C259.712 37.5156 259.96 37.6133 260.181 37.6133C260.455 37.6133 260.591 37.4701 260.591 37.1836C260.591 36.9102 260.455 36.6953 260.181 36.5391L260.357 36.3047Z" fill="#EA8610"/>
<path d="M26.4512 55.8242C28.6387 55.8242 30.4616 56.3665 31.9199 57.4512C33.3874 58.5358 34.1211 59.8118 34.1211 61.2793C34.1211 63.1022 33.5378 64.6699 32.3711 65.9824C31.2044 67.2949 29.8828 67.9512 28.4062 67.9512C27.9323 67.9512 27.5039 67.7598 27.1211 67.377C26.7474 66.985 26.5605 66.5521 26.5605 66.0781C26.5605 65.7865 26.8066 65.5085 27.2988 65.2441C27.8001 64.9707 28.2467 64.834 28.6387 64.834C29.0488 64.834 29.2539 65.1074 29.2539 65.6543C29.2539 65.8092 29.0853 66.0326 28.748 66.3242C28.7116 66.2695 28.6159 66.11 28.4609 65.8457C28.3151 65.5814 28.1465 65.4492 27.9551 65.4492C27.5449 65.4492 27.3398 65.7773 27.3398 66.4336C27.3398 66.7617 27.4629 67.0306 27.709 67.2402C27.9642 67.4499 28.2741 67.5547 28.6387 67.5547C29.5957 67.5547 30.4342 67.0352 31.1543 65.9961C31.8835 64.957 32.248 63.7311 32.248 62.3184C32.248 60.6595 31.7604 59.2923 30.7852 58.2168C29.8099 57.1413 28.347 56.5579 26.3965 56.4668C26.2051 58.4538 26.1094 61.5345 26.1094 65.709C26.1094 66.7936 26.2188 68.2793 26.4375 70.166C26.6562 72.0436 26.7793 73.3652 26.8066 74.1309L30.2246 74.418L30.0332 75.2246C29.0306 75.0514 27.6953 74.9102 26.0273 74.8008C24.3594 74.7005 23.0514 74.6641 22.1035 74.6914L22.0215 73.8848C22.8327 73.8757 23.6758 73.9076 24.5508 73.9805C25.4349 74.0534 25.9544 74.0762 26.1094 74.0488C26.0547 73.2376 25.9043 71.9616 25.6582 70.2207C25.084 66.1738 24.7969 62.6328 24.7969 59.5977C24.7969 57.9115 24.8151 56.8587 24.8516 56.4395C23.4661 56.4941 22.2585 56.8132 21.2285 57.3965C20.2077 57.9798 19.6973 58.6953 19.6973 59.543C19.6973 59.944 19.8704 60.2676 20.2168 60.5137C20.5723 60.7507 20.9779 60.8691 21.4336 60.8691C22.5547 60.8691 23.1152 60.6641 23.1152 60.2539C23.1152 60.1445 23.056 60.0534 22.9375 59.9805C22.8281 59.8984 22.7096 59.8574 22.582 59.8574C22.2812 59.8574 22.1309 60.026 22.1309 60.3633C21.8483 60.3177 21.707 60.1536 21.707 59.8711C21.707 59.4336 21.9714 59.2148 22.5 59.2148C22.7461 59.2148 22.9785 59.3105 23.1973 59.502C23.4251 59.6934 23.5391 59.8848 23.5391 60.0762C23.5391 60.541 23.3249 60.9375 22.8965 61.2656C22.4681 61.5938 21.944 61.7578 21.3242 61.7578C20.6589 61.7578 20.0892 61.5618 19.6152 61.1699C19.1504 60.7689 18.918 60.2858 18.918 59.7207C18.918 58.9915 19.3418 58.2487 20.1895 57.4922C21.0371 56.7266 22.6003 56.1888 24.8789 55.8789C24.8789 55.5143 24.888 54.5892 24.9062 53.1035C26.1276 53.2038 26.8203 53.2539 26.9844 53.2539C26.638 54.6849 26.4603 55.5417 26.4512 55.8242ZM43.2933 73.8301L43.2386 74.582C42.2633 74.4909 41.2288 74.4453 40.1351 74.4453C39.6611 74.4453 38.7269 74.5365 37.3323 74.7188V73.9395L39.7659 73.8848C39.1188 69.1999 38.777 63.5625 38.7405 56.9727L36.7171 57.0273L36.7445 56.3848C38.4215 56.403 39.5745 56.3665 40.2034 56.2754C40.8323 56.1842 41.6116 56.0065 42.5413 55.7422L42.678 56.4395L40.8597 56.8086C40.5224 61.0833 40.3538 64.8021 40.3538 67.9648C40.3538 69.8971 40.404 71.8613 40.5042 73.8574C41.279 73.8574 42.2086 73.8483 43.2933 73.8301ZM57.401 70.8633C57.8112 70.9727 58.0163 71.1413 58.0163 71.3691C58.0163 71.7064 57.9251 72.0026 57.7428 72.2578C57.5605 72.5039 57.3235 72.627 57.0319 72.627C56.7129 72.627 56.444 72.4857 56.2252 72.2031C56.0156 71.9206 55.9108 71.6107 55.9108 71.2734C55.9108 70.7539 56.1478 70.2526 56.6217 69.7695C57.1048 69.2865 57.5241 69.0449 57.8795 69.0449C58.6725 69.0449 59.2968 69.2135 59.7526 69.5508C60.2174 69.8789 60.4498 70.362 60.4498 71C60.4498 71.5195 60.2767 72.0846 59.9303 72.6953C59.5931 73.2969 59.2011 73.7799 58.7545 74.1445C58.317 74.5091 57.8795 74.7324 57.442 74.8145C57.0045 74.9056 56.3847 74.9512 55.5827 74.9512C55.2272 74.9512 54.4251 74.8691 53.1764 74.7051C51.9277 74.5501 50.9251 74.4727 50.1686 74.4727C49.6308 74.4727 48.8743 74.5638 47.8991 74.7461V74.0215L49.4713 73.9121C49.1797 70.084 48.8698 67.0853 48.5416 64.916C48.2226 62.7467 47.7304 60.3952 47.0651 57.8613L45.6022 57.9844V57.2734C48.7285 57.1732 51.5221 56.877 53.983 56.3848L57.0592 55.7695C56.7402 57.4831 56.6172 58.987 56.6901 60.2812H56.0202L56.1022 57.1914L49.7311 57.6152C50.0228 61.8171 50.1686 64.6927 50.1686 66.2422C52.8392 66.1237 54.9492 65.7956 56.4987 65.2578V66.3516C54.5937 66.7253 52.4837 66.9395 50.1686 66.9941C50.2051 67.9238 50.2233 69.1224 50.2233 70.5898C50.2233 71.6654 50.2142 72.7546 50.1959 73.8574L55.5143 74.0215C57.1549 74.0215 58.1985 73.8346 58.6452 73.4609C59.1009 73.0872 59.3288 72.5267 59.3288 71.7793C59.3288 70.4941 58.6771 69.8516 57.3737 69.8516C57.1823 69.8516 56.9817 69.9701 56.7721 70.207C56.5716 70.4349 56.4713 70.7083 56.4713 71.0273C56.4713 71.2552 56.567 71.4375 56.7584 71.5742C56.9498 71.7109 57.123 71.7793 57.278 71.7793C57.4694 71.7793 57.5651 71.679 57.5651 71.4785C57.5651 71.2871 57.4694 71.1367 57.278 71.0273L57.401 70.8633ZM76.1025 69.1816C76.0114 71.1322 75.4645 72.6452 74.4619 73.7207C73.4684 74.7962 72.1149 75.334 70.4013 75.334C68.5055 75.334 66.7327 74.4225 65.083 72.5996C63.4332 70.7676 62.6084 68.7487 62.6084 66.543C62.6084 65.1758 62.9775 63.6354 63.7158 61.9219C64.4632 60.2083 65.4567 58.8366 66.6963 57.8066C67.9358 56.7676 69.2985 56.248 70.7841 56.248C72.1696 56.248 73.277 56.6126 74.1064 57.3418C74.9358 58.0618 75.3505 58.8639 75.3505 59.748C75.3505 60.5957 74.9541 61.3613 74.1611 62.0449C73.3772 62.7285 72.525 63.0703 71.6045 63.0703C71.0576 63.0703 70.5061 62.8561 69.9502 62.4277C69.4033 61.9993 69.1298 61.4707 69.1298 60.8418C69.1298 60.2402 69.3121 59.7799 69.6767 59.4609C70.0504 59.1419 70.5153 58.9824 71.0713 58.9824C71.4814 58.9824 71.8414 59.1146 72.1513 59.3789C72.4703 59.6341 72.6298 59.8939 72.6298 60.1582C72.6298 60.5866 72.5341 60.9375 72.3427 61.2109C72.1604 61.4844 71.9417 61.6211 71.6865 61.6211C71.3948 61.6211 71.1897 61.4798 71.0713 61.1973C71.2535 61.1973 71.4632 61.1152 71.7002 60.9512C71.9463 60.778 72.0693 60.6094 72.0693 60.4453C72.0693 59.862 71.8961 59.5703 71.5498 59.5703C71.1396 59.5703 70.7568 59.7344 70.4013 60.0625C70.0459 60.3906 69.8681 60.778 69.8681 61.2246C69.8681 61.5345 70.0459 61.8626 70.4013 62.209C70.7568 62.5462 71.1578 62.7148 71.6045 62.7148C72.2242 62.7148 72.7483 62.4095 73.1767 61.7988C73.6142 61.1882 73.833 60.5046 73.833 59.748C73.833 58.9824 73.5595 58.2943 73.0127 57.6836C72.4658 57.0638 71.7321 56.7539 70.8115 56.7539C68.8974 56.7539 67.3753 57.5879 66.2451 59.2559C65.1149 60.9147 64.5498 62.9518 64.5498 65.3672C64.5498 68.0013 65.1969 70.2116 66.4912 71.998C67.7946 73.7754 69.3759 74.6641 71.2353 74.6641C72.3655 74.6641 73.2268 74.3223 73.8193 73.6387C74.4117 72.946 74.708 72.0482 74.708 70.9453C74.708 70.5443 74.6715 69.9199 74.5986 69.0723L76.1025 69.1816ZM90.2376 70.8633C90.6477 70.9727 90.8528 71.1413 90.8528 71.3691C90.8528 71.7064 90.7617 72.0026 90.5794 72.2578C90.3971 72.5039 90.1601 72.627 89.8684 72.627C89.5494 72.627 89.2805 72.4857 89.0618 72.2031C88.8522 71.9206 88.7473 71.6107 88.7473 71.2734C88.7473 70.7539 88.9843 70.2526 89.4583 69.7695C89.9414 69.2865 90.3606 69.0449 90.7161 69.0449C91.5091 69.0449 92.1334 69.2135 92.5891 69.5508C93.054 69.8789 93.2864 70.362 93.2864 71C93.2864 71.5195 93.1132 72.0846 92.7669 72.6953C92.4296 73.2969 92.0377 73.7799 91.5911 74.1445C91.1536 74.5091 90.7161 74.7324 90.2786 74.8145C89.8411 74.9056 89.2213 74.9512 88.4192 74.9512C88.0638 74.9512 87.2617 74.8691 86.013 74.7051C84.7643 74.5501 83.7617 74.4727 83.0052 74.4727C82.4674 74.4727 81.7109 74.5638 80.7356 74.7461V74.0215L82.3079 73.9121C82.0162 70.084 81.7063 67.0853 81.3782 64.916C81.0592 62.7467 80.567 60.3952 79.9016 57.8613L78.4388 57.9844V57.2734C81.5651 57.1732 84.3587 56.877 86.8196 56.3848L89.8958 55.7695C89.5768 57.4831 89.4537 58.987 89.5266 60.2812H88.8567L88.9388 57.1914L82.5677 57.6152C82.8593 61.8171 83.0052 64.6927 83.0052 66.2422C85.6757 66.1237 87.7858 65.7956 89.3352 65.2578V66.3516C87.4303 66.7253 85.3203 66.9395 83.0052 66.9941C83.0416 67.9238 83.0598 69.1224 83.0598 70.5898C83.0598 71.6654 83.0507 72.7546 83.0325 73.8574L88.3509 74.0215C89.9915 74.0215 91.0351 73.8346 91.4817 73.4609C91.9374 73.0872 92.1653 72.5267 92.1653 71.7793C92.1653 70.4941 91.5136 69.8516 90.2102 69.8516C90.0188 69.8516 89.8183 69.9701 89.6087 70.207C89.4082 70.4349 89.3079 70.7083 89.3079 71.0273C89.3079 71.2552 89.4036 71.4375 89.595 71.5742C89.7864 71.7109 89.9596 71.7793 90.1145 71.7793C90.3059 71.7793 90.4016 71.679 90.4016 71.4785C90.4016 71.2871 90.3059 71.1367 90.1145 71.0273L90.2376 70.8633ZM112.916 66.4883C112.779 66.9076 112.711 67.3678 112.711 67.8691C112.082 67.6413 111.17 67.5273 109.976 67.5273C109.247 67.5273 108.459 67.5684 107.611 67.6504C106.773 67.7324 106.139 67.7871 105.711 67.8145C105.711 67.3223 105.684 66.9577 105.629 66.7207C106.704 66.7207 107.93 66.6842 109.307 66.6113C110.683 66.5293 111.886 66.4883 112.916 66.4883ZM140.995 70.3301C141.241 70.3301 141.364 70.4987 141.364 70.8359C141.364 70.9818 141.273 71.1139 141.09 71.2324C140.908 71.3418 140.68 71.3965 140.407 71.3965C140.106 71.3965 139.814 71.278 139.532 71.041C139.258 70.804 139.122 70.5306 139.122 70.2207C139.122 69.9199 139.286 69.651 139.614 69.4141C139.951 69.168 140.348 69.0449 140.803 69.0449C141.341 69.0449 141.833 69.2318 142.28 69.6055C142.736 69.9792 142.963 70.4076 142.963 70.8906C142.963 71.474 142.69 71.9616 142.143 72.3535C141.596 72.7363 141.027 72.9277 140.434 72.9277C138.939 72.9277 137.49 72.4128 136.086 71.3828C134.692 70.3529 133.083 68.4616 131.26 65.709L129.661 67.0215L129.606 73.8848C130.39 73.8848 131.315 73.7161 132.381 73.3789V74.1035C131.351 74.3314 130.322 74.4453 129.292 74.4453C128.827 74.4453 127.897 74.5365 126.503 74.7188V73.9668L128.936 73.9121L127.897 57.4785L125.887 57.5332V56.8906C127.355 56.8633 128.407 56.8223 129.045 56.7676C129.683 56.7038 130.572 56.5124 131.711 56.1934V56.9453L130.03 57.3145C129.829 59.903 129.706 62.8698 129.661 66.2148C131.794 64.401 133.389 62.7194 134.446 61.1699C135.512 59.6113 136.342 57.9525 136.934 56.1934L135.731 55.4004L136.045 54.9219C136.939 55.487 137.686 55.8835 138.288 56.1113C138.898 56.3301 139.559 56.5352 140.27 56.7266L139.942 57.2461L138.506 56.8906C136.747 59.7708 134.779 62.2819 132.6 64.4238L134.624 67.6367C135.28 68.6758 135.895 69.5417 136.469 70.2344C137.053 70.918 137.686 71.474 138.37 71.9023C139.053 72.3307 139.782 72.5449 140.557 72.5449C140.922 72.5449 141.245 72.3717 141.528 72.0254C141.81 71.679 141.952 71.2734 141.952 70.8086C141.952 70.3893 141.847 70.043 141.637 69.7695C141.437 69.487 141.168 69.3457 140.831 69.3457C140.275 69.3457 139.997 69.61 139.997 70.1387C139.997 70.3392 140.051 70.5397 140.161 70.7402C140.27 70.9316 140.393 71.0273 140.53 71.0273C140.803 71.0273 140.958 70.7949 140.995 70.3301ZM152.71 61.6211C152.564 61.8398 152.377 61.9492 152.149 61.9492C151.994 61.9492 151.844 61.8307 151.698 61.5938C151.552 61.3568 151.479 61.1517 151.479 60.9785C151.479 60.778 151.607 60.5547 151.862 60.3086C152.127 60.0625 152.4 59.9395 152.683 59.9395C152.956 59.9395 153.252 60.1172 153.571 60.4727C153.89 60.8281 154.05 61.1562 154.05 61.457C154.05 62.1497 153.826 62.7331 153.38 63.207C152.942 63.681 152.473 63.918 151.972 63.918C151.397 63.918 150.896 63.6582 150.468 63.1387C150.039 62.61 149.825 62.0312 149.825 61.4023C149.825 60.5 150.263 59.6432 151.138 58.832C152.013 58.0208 153.106 57.6152 154.419 57.6152C156.351 57.6152 158.087 58.4219 159.628 60.0352C161.168 61.6484 161.938 63.4076 161.938 65.3125C161.938 67.7096 161.104 69.8835 159.436 71.834C157.768 73.7754 155.841 74.7461 153.653 74.7461C151.128 74.7461 148.987 73.9167 147.227 72.2578C145.468 70.5898 144.589 68.6211 144.589 66.3516C144.589 64.1458 145.295 62.1361 146.708 60.3223C148.13 58.5085 149.875 57.3464 151.944 56.8359L152.122 57.2461C150.445 57.5742 149.096 58.5586 148.075 60.1992C147.054 61.8398 146.544 63.7676 146.544 65.9824C146.544 68.3066 147.232 70.2708 148.608 71.875C149.985 73.4792 151.744 74.2812 153.886 74.2812C155.617 74.2812 157.044 73.4336 158.165 71.7383C159.286 70.043 159.847 68.0879 159.847 65.873C159.847 63.6764 159.304 61.8626 158.22 60.4316C157.135 59.0007 155.736 58.2852 154.022 58.2852C152.974 58.2852 152.09 58.6087 151.37 59.2559C150.659 59.8939 150.304 60.5957 150.304 61.3613C150.304 61.7715 150.472 62.1133 150.809 62.3867C151.147 62.6602 151.498 62.7969 151.862 62.7969C152.327 62.7969 152.724 62.6875 153.052 62.4688C153.38 62.2409 153.544 61.9674 153.544 61.6484C153.544 61.3841 153.448 61.1654 153.257 60.9922C153.065 60.8099 152.856 60.7188 152.628 60.7188C152.099 60.7188 151.835 60.8053 151.835 60.9785C151.835 61.1335 152.127 61.3477 152.71 61.6211ZM185.398 72.4902C185.635 72.5723 185.753 72.709 185.753 72.9004C185.753 73.347 185.439 73.5703 184.81 73.5703C184.527 73.5703 184.236 73.4427 183.935 73.1875C183.634 72.9323 183.484 72.668 183.484 72.3945C183.484 71.9935 183.711 71.6152 184.167 71.2598C184.623 70.9043 185.115 70.7266 185.644 70.7266C186.045 70.7266 186.4 70.9043 186.71 71.2598C187.029 71.6061 187.189 72.0527 187.189 72.5996C187.189 73.2012 186.883 73.8483 186.273 74.541C185.662 75.2428 185.106 75.5938 184.605 75.5938C183.648 75.5938 182.941 75.293 182.486 74.6914C182.039 74.099 181.761 73.388 181.652 72.5586C181.551 71.7201 181.501 70.6354 181.501 69.3047L181.679 61.8535C181.679 61.1061 181.656 60.3359 181.611 59.543C179.213 64.319 177.769 67.7552 177.277 69.8516L176.484 69.9062C175.7 68.1836 174.729 66.1875 173.571 63.918C172.414 61.6484 171.671 59.8848 171.343 58.627C171.224 60.0671 171.165 61.7441 171.165 63.6582C171.165 66.821 171.334 70.1842 171.671 73.748C172.318 73.748 173.18 73.8027 174.255 73.9121L174.159 74.4453C170.331 74.3268 168.363 74.2539 168.253 74.2266L168.308 73.543C169.511 73.707 170.427 73.7754 171.056 73.748C170.336 69.1634 170.008 63.7493 170.071 57.5059C168.586 57.5059 167.556 57.5469 166.982 57.6289C166.417 57.7109 165.947 57.957 165.573 58.3672C165.2 58.7773 165.013 59.3197 165.013 59.9941C165.013 60.4954 165.2 60.9056 165.573 61.2246C165.956 61.5436 166.376 61.7031 166.831 61.7031C167.096 61.7031 167.337 61.6348 167.556 61.498C167.784 61.3613 167.898 61.2064 167.898 61.0332C167.898 60.9329 167.838 60.819 167.72 60.6914C167.601 60.5638 167.501 60.5 167.419 60.5C166.982 60.5 166.608 60.6777 166.298 61.0332C166.107 60.9056 166.011 60.7552 166.011 60.582C166.011 60.3451 166.125 60.14 166.353 59.9668C166.59 59.7845 166.795 59.6934 166.968 59.6934C167.287 59.6934 167.624 59.8301 167.98 60.1035C168.335 60.3678 168.513 60.6595 168.513 60.9785C168.513 61.4069 168.344 61.7988 168.007 62.1543C167.679 62.5098 167.323 62.6875 166.941 62.6875C166.33 62.6875 165.783 62.4323 165.3 61.9219C164.826 61.4115 164.589 60.7142 164.589 59.8301C164.589 59.1374 164.876 58.4948 165.45 57.9023C166.025 57.3008 166.699 57 167.474 57C168.148 57 169.133 56.9635 170.427 56.8906C171.721 56.8086 172.614 56.722 173.107 56.6309L173.298 57.2188C172.624 57.3008 172.118 57.3418 171.78 57.3418C172.665 59.9577 174.524 63.2526 177.359 67.2266C178.461 64.4831 179.341 62.4368 179.997 61.0879C180.663 59.7389 181.21 58.4492 181.638 57.2188C181.501 57.1823 180.877 57.082 179.765 56.918L179.929 56.3574C180.239 56.4577 181.168 56.6035 182.718 56.7949C184.277 56.9772 185.598 57.0911 186.683 57.1367L186.546 57.7246C185.863 57.7246 184.956 57.6426 183.825 57.4785C183.752 57.7975 183.543 59.8802 183.196 63.7266C182.85 67.5638 182.677 70.3893 182.677 72.2031C182.677 74.181 183.21 75.1699 184.277 75.1699C184.796 75.1699 185.243 74.9512 185.616 74.5137C185.99 74.0853 186.177 73.5475 186.177 72.9004C186.177 71.7064 185.89 71.1094 185.316 71.1094C185.115 71.1094 184.901 71.2051 184.673 71.3965C184.445 71.5788 184.331 71.7839 184.331 72.0117C184.331 72.3125 184.404 72.5859 184.55 72.832C184.696 73.069 184.855 73.1875 185.029 73.1875C185.275 73.1875 185.398 72.9551 185.398 72.4902ZM196.785 73.8301L196.73 74.582C195.755 74.4909 194.72 74.4453 193.626 74.4453C193.153 74.4453 192.218 74.5365 190.824 74.7188V73.9395L193.257 73.8848C192.61 69.1999 192.268 63.5625 192.232 56.9727L190.209 57.0273L190.236 56.3848C191.913 56.403 193.066 56.3665 193.695 56.2754C194.324 56.1842 195.103 56.0065 196.033 55.7422L196.169 56.4395L194.351 56.8086C194.014 61.0833 193.845 64.8021 193.845 67.9648C193.845 69.8971 193.895 71.8613 193.996 73.8574C194.77 73.8574 195.7 73.8483 196.785 73.8301ZM214.105 70.6035C213.996 66.3014 213.941 63.8223 213.941 63.166C213.941 61.2428 214.037 59.8301 214.228 58.9277C214.429 58.0254 214.93 57.3053 215.732 56.7676C216.534 56.2298 217.523 55.9609 218.699 55.9609C219.419 55.9609 219.998 56.1022 220.435 56.3848C220.882 56.6673 221.105 57.0501 221.105 57.5332C221.105 57.8978 220.823 58.2852 220.258 58.6953C219.693 59.0964 219.023 59.2969 218.248 59.2969C217.902 59.2969 217.519 59.1693 217.099 58.9141C216.689 58.6497 216.484 58.4036 216.484 58.1758C216.484 57.8659 216.575 57.6198 216.758 57.4375C216.94 57.2552 217.177 57.1641 217.469 57.1641C217.715 57.1641 217.902 57.2689 218.029 57.4785C217.765 57.7611 217.633 57.9753 217.633 58.1211C217.633 58.6406 217.943 58.9004 218.562 58.9004C218.954 58.9004 219.25 58.8001 219.451 58.5996C219.661 58.3991 219.765 58.153 219.765 57.8613C219.765 57.4147 219.583 57.0775 219.219 56.8496C218.863 56.6126 218.394 56.4941 217.81 56.4941C216.762 56.4941 215.956 57.0638 215.39 58.2031C214.834 59.3424 214.556 61.7305 214.556 65.3672C214.556 68.9036 214.762 71.9297 215.172 74.4453L214.666 74.5273C210.974 67.2995 208.017 62.1087 205.793 58.9551C206.002 61.1335 206.107 63.6035 206.107 66.3652C206.107 68.2337 206.043 69.6966 205.916 70.7539C205.797 71.8112 205.492 72.7409 205 73.543C204.517 74.3451 203.765 74.7461 202.744 74.7461C201.668 74.7461 200.711 74.4408 199.873 73.8301C199.043 73.2194 198.629 72.4629 198.629 71.5605C198.629 70.9134 198.961 70.2982 199.627 69.7148C200.292 69.1315 201.003 68.8398 201.76 68.8398C202.161 68.8398 202.512 68.9401 202.812 69.1406C203.122 69.3411 203.277 69.5964 203.277 69.9062C203.277 70.2982 203.104 70.64 202.758 70.9316C202.411 71.2233 201.978 71.3691 201.459 71.3691C201.313 71.3691 201.19 71.319 201.09 71.2188C200.999 71.1185 200.953 71 200.953 70.8633C200.953 70.7174 201.026 70.5671 201.172 70.4121C201.226 70.4486 201.322 70.5488 201.459 70.7129C201.605 70.8678 201.741 70.9453 201.869 70.9453C202.261 70.9453 202.457 70.7402 202.457 70.3301C202.457 70.0931 202.297 69.8743 201.978 69.6738C201.668 69.4733 201.354 69.373 201.035 69.373C200.68 69.373 200.37 69.5553 200.105 69.9199C199.85 70.2754 199.723 70.6354 199.723 71C199.723 71.7656 199.918 72.4674 200.31 73.1055C200.711 73.7344 201.222 74.0488 201.842 74.0488C203.054 74.0488 203.974 73.3835 204.603 72.0527C205.232 70.7129 205.547 68.8945 205.547 66.5977C205.547 65.0391 205.437 63.2298 205.219 61.1699C205.009 59.11 204.827 57.7747 204.672 57.1641L201.062 57.3145V56.6855C203.405 56.6855 205.337 56.5671 206.859 56.3301C208.983 61.252 211.398 66.0098 214.105 70.6035ZM237.606 70.3301C237.852 70.3301 237.975 70.4987 237.975 70.8359C237.975 70.9818 237.884 71.1139 237.701 71.2324C237.519 71.3418 237.291 71.3965 237.018 71.3965C236.717 71.3965 236.425 71.278 236.143 71.041C235.869 70.804 235.733 70.5306 235.733 70.2207C235.733 69.9199 235.897 69.651 236.225 69.4141C236.562 69.168 236.958 69.0449 237.414 69.0449C237.952 69.0449 238.444 69.2318 238.891 69.6055C239.347 69.9792 239.574 70.4076 239.574 70.8906C239.574 71.474 239.301 71.9616 238.754 72.3535C238.207 72.7363 237.638 72.9277 237.045 72.9277C235.55 72.9277 234.101 72.4128 232.697 71.3828C231.303 70.3529 229.694 68.4616 227.871 65.709L226.272 67.0215L226.217 73.8848C227.001 73.8848 227.926 73.7161 228.992 73.3789V74.1035C227.962 74.3314 226.932 74.4453 225.902 74.4453C225.438 74.4453 224.508 74.5365 223.113 74.7188V73.9668L225.547 73.9121L224.508 57.4785L222.498 57.5332V56.8906C223.966 56.8633 225.018 56.8223 225.656 56.7676C226.294 56.7038 227.183 56.5124 228.322 56.1934V56.9453L226.641 57.3145C226.44 59.903 226.317 62.8698 226.272 66.2148C228.404 64.401 230 62.7194 231.057 61.1699C232.123 59.6113 232.953 57.9525 233.545 56.1934L232.342 55.4004L232.656 54.9219C233.55 55.487 234.297 55.8835 234.899 56.1113C235.509 56.3301 236.17 56.5352 236.881 56.7266L236.553 57.2461L235.117 56.8906C233.358 59.7708 231.389 62.2819 229.211 64.4238L231.235 67.6367C231.891 68.6758 232.506 69.5417 233.08 70.2344C233.664 70.918 234.297 71.474 234.981 71.9023C235.664 72.3307 236.393 72.5449 237.168 72.5449C237.533 72.5449 237.856 72.3717 238.139 72.0254C238.421 71.679 238.563 71.2734 238.563 70.8086C238.563 70.3893 238.458 70.043 238.248 69.7695C238.048 69.487 237.779 69.3457 237.442 69.3457C236.886 69.3457 236.608 69.61 236.608 70.1387C236.608 70.3392 236.662 70.5397 236.772 70.7402C236.881 70.9316 237.004 71.0273 237.141 71.0273C237.414 71.0273 237.569 70.7949 237.606 70.3301ZM248.5 73.8301L248.446 74.582C247.471 74.4909 246.436 74.4453 245.342 74.4453C244.868 74.4453 243.934 74.5365 242.54 74.7188V73.9395L244.973 73.8848C244.326 69.1999 243.984 63.5625 243.948 56.9727L241.924 57.0273L241.952 56.3848C243.629 56.403 244.782 56.3665 245.411 56.2754C246.04 56.1842 246.819 56.0065 247.749 55.7422L247.885 56.4395L246.067 56.8086C245.73 61.0833 245.561 64.8021 245.561 67.9648C245.561 69.8971 245.611 71.8613 245.711 73.8574C246.486 73.8574 247.416 73.8483 248.5 73.8301Z" fill="#EA8610"/>
</svg>